<?xml version="1.0" encoding="UTF-8"?>
<svg id="Calque_2" data-name="Calque 2" xmlns="http://www.w3.org/2000/svg" viewBox="0 0 96.54 96.54">
  <defs>
    <style>
      .cls-1 {
        fill: #e5e5e5;
      }

      .cls-2 {
        fill: #121212;
      }
    </style>
  </defs>
  <g id="Calque_1-2" data-name="Calque 1">
    <circle class="cls-2" cx="48.27" cy="48.27" r="48.27"/>
    <path class="cls-1" d="M37.71,19.08c2.01-.11,4.48.65,5.95,2.01,1.57,1.42,1.97,2.93,2.03,4.99.13,4.88-3.75,6.32-6.58,9.4-5.4,5.84-6.26,12.73,1.99,16.36,3.33,1.45,6.1,2.14,9.26,4.17,6.62,4.25,8.75,10.01,3.73,16.65-4.69,6.2-16.71,3.22-22.39-.15-14.95-8.84-16.88-28.21-8.31-42.12,3.06-4.98,7.88-10.97,14.31-11.31Z"/>
    <path class="cls-1" d="M74.36,53.74c2.33,2.26,4.98,6.83,5.22,10.07.5,6.33-4.67,12.06-11.14,12.4-2.81.15-7.35-1-9.22-3.18-1.51-1.76-.65-3.25-.31-5.19,1.4-7.65-4.27-12.36-10.51-15.48-1.32-.67-3.12-1.21-4.29-1.93-.67-.4-1.53-1.32-.29-1.65,1.38-.38,3.35-.31,4.82-.5,3.46-.48,6.37-1.45,10.05-1.59,6.24-.25,11.41,2.93,15.67,7.08h0l-.02-.04Z"/>
    <path class="cls-1" d="M50.23,24.63c3.94-4.27,11.35-5.65,16.04-1.68,3.06,2.58,3.6,4.19,3.54,6.88-.14,1.92-.48,4.18-2.4,9.81-.92,1.89-1.59,2.66-2.58,3.62-1.55,1.51-6.53,1.65-8.71,1.93-4.59.59-12.02,1.86-16.38.5-5.55-1.72.54-8.36,2.83-10.39,1.86-1.65,3.31-2.51,4.48-4.82,1.17-2.33,1.19-3.69,3.2-5.86h0l-.02.02Z"/>
  </g>
</svg>